<?xml version="1.0" encoding="utf-8"?><svg xml:space="preserve" viewBox="0 0 100 100" y="0" x="0" xmlns="http://www.w3.org/2000/svg" id="圖層_1" version="1.1" width="60px" height="60px" xmlns:xlink="http://www.w3.org/1999/xlink" style="width:100%;height:100%;background-size:initial;background-repeat-y:initial;background-repeat-x:initial;background-position-y:initial;background-position-x:initial;background-origin:initial;background-color:initial;background-clip:initial;background-attachment:initial;animation-play-state:paused" ><g class="ldl-scale" style="transform-origin:50% 50%;transform:rotate(0deg) scale(0.8, 0.8);animation-play-state:paused" ><path fill="#f8b26a" d="M49.999 16.648c-18.39 0-33.351 14.961-33.351 33.351s14.961 33.352 33.351 33.352 33.352-14.962 33.352-33.352c.001-18.39-14.961-33.351-33.352-33.351z" style="fill:rgb(248, 178, 106);animation-play-state:paused" ></path>
<path fill="#f5e6c8" d="M49.999 10C27.944 10 10 27.943 10 49.999S27.944 90 49.999 90C72.055 90 90 72.055 90 49.999 90 27.943 72.055 10 49.999 10zm0 73.352c-18.39 0-33.351-14.962-33.351-33.352 0-18.39 14.961-33.351 33.351-33.351S83.351 31.61 83.351 50c.001 18.39-14.961 33.352-33.352 33.352z" style="fill:rgb(245, 230, 200);animation-play-state:paused" ></path>
<g style="animation-play-state:paused" ><path d="M32.742 42.614h25.174v4.816H32.742z" fill="#f5e6c8" style="fill:rgb(245, 230, 200);animation-play-state:paused" ></path></g>
<g style="animation-play-state:paused" ><path d="M32.742 52.569h25.174v4.816H32.742z" fill="#f5e6c8" style="fill:rgb(245, 230, 200);animation-play-state:paused" ></path></g>
<g style="animation-play-state:paused" ><path fill="#f5e6c8" d="M54.267 69c-9.894 0-17.942-8.523-17.942-19s8.049-19 17.942-19c2.683 0 5.268.615 7.683 1.829l-2.162 4.304a12.194 12.194 0 0 0-5.521-1.316c-7.238 0-13.126 6.363-13.126 14.184s5.888 14.184 13.126 14.184c1.925 0 3.783-.443 5.521-1.316l2.161 4.304A16.975 16.975 0 0 1 54.267 69z" style="fill:rgb(245, 230, 200);animation-play-state:paused" ></path></g>
<metadata xmlns:d="https://loading.io/stock/" style="animation-play-state:paused" ><d:name style="animation-play-state:paused" >money</d:name>
<d:tags style="animation-play-state:paused" >money,buck,euro,eur,currency,europe</d:tags>
<d:license style="animation-play-state:paused" >by</d:license>
<d:slug style="animation-play-state:paused" >xquiqj</d:slug></metadata></g><!-- generated by https://loading.io/ --></svg>